<svg xmlns="http://www.w3.org/2000/svg" viewBox="0 0 512 512"><defs><style>.cls-1{fill:#efeeef;}.cls-2{fill:#c4d4de;}.cls-3{fill:#aedef8;}.cls-4{fill:#ffec00;}.cls-5{fill:#fcc200;}.cls-6{fill:#b71e71;}.cls-7{fill:#931d5b;}.cls-8{fill:#f98800;}.cls-9{fill:#4cabcc;}.cls-10{fill:#fff;}</style></defs><g id="filled_outline" data-name="filled outline"><polygon class="cls-1" points="320 8 368 56 344 96 384 72 440 128 416 168 456 144 496 184 376 304 200 128 320 8"></polygon><polygon class="cls-2" points="368 56 350 86 336 72 296 96 320 56 296 32 320 8 368 56"></polygon><polygon class="cls-2" points="354 90 384 72 440 128 422 158 408 144 368 168 392 128 354 90"></polygon><polygon class="cls-2" points="496 184 376 304 352 280 448 184 426 162 456 144 496 184"></polygon><rect class="cls-3" x="249.37" y="96.24" width="45.25" height="271.53" transform="translate(-84.38 260.28) rotate(-45)"></rect><path class="cls-4" d="M160,152l-19.19,19.19a32,32,0,0,0-8.42,30.39L154.8,291.2a32,32,0,0,1-12.06,33.52L29.56,408.11A53,53,0,0,0,8,450.78V451a53,53,0,0,0,53,53h0a53,53,0,0,0,42.87-21.85l82.58-113.66a32,32,0,0,1,32.1-12.58l84.69,16.77a32,32,0,0,0,28.84-8.76L352,344ZM64,472a24,24,0,1,1,24-24A24,24,0,0,1,64,472Z"></path><path class="cls-5" d="M320,312l-19.92,19.92a32,32,0,0,1-28.84,8.76l-84.69-16.77a32,32,0,0,0-32.1,12.58L83.54,434.08a24,24,0,0,1-33.38,33.51A53.09,53.09,0,0,1,11.1,468.9a53,53,0,0,0,92.77,13.25l82.58-113.66a32,32,0,0,1,32.1-12.58l84.69,16.77a32,32,0,0,0,28.84-8.76L352,344Z"></path><path class="cls-6" d="M427.31,83.31l72,72A16,16,0,0,1,504,166.63V272a16,16,0,0,1-16,16h0a16,16,0,0,1-16-16v-8h0v72a24,24,0,0,1-24,24h0a24,24,0,0,1-24-24V232a16,16,0,0,0-16-16h0a16,16,0,0,0-16,16v8a16,16,0,0,1-16,16h0a16,16,0,0,1-16-16V134.63a16,16,0,0,1,4.69-11.32l40-40A16,16,0,0,1,427.31,83.31Z"></path><path class="cls-7" d="M504,166.63V272a16,16,0,1,1-32,0v64a24,24,0,0,1-48,0,24,24,0,0,0,32-22.63v-64a16,16,0,0,0,32,0V144l11.31,11.31A16,16,0,0,1,504,166.63Z"></path><rect class="cls-8" x="424" y="392" width="48" height="48" rx="24"></rect><rect class="cls-6" x="424" y="392" width="48" height="48" rx="24"></rect><path class="cls-7" d="M472,416a24,24,0,0,1-47,7A24,24,0,0,0,455,393a24,24,0,0,1,17,23Z"></path><rect class="cls-9" x="329.37" y="289.37" width="45.25" height="45.25" transform="translate(-117.52 340.28) rotate(-45)"></rect><circle class="cls-10" cx="440" cy="408" r="8"></circle><circle class="cls-10" cx="448" cy="328" r="8"></circle><circle class="cls-10" cx="384" cy="192" r="8"></circle><circle class="cls-10" cx="88" cy="392" r="8"></circle><circle class="cls-10" cx="176" cy="168" r="8"></circle><rect class="cls-10" x="440" y="272" width="16" height="32" rx="8"></rect><circle class="cls-10" cx="480" cy="248" r="8"></circle><rect class="cls-10" x="472" y="168" width="16" height="56" rx="8"></rect><path class="cls-10" d="M384,168a8,8,0,0,1-8-8V136a8,8,0,0,1,2.34-5.66l24-24a8,8,0,1,1,11.32,11.32L392,139.31V160A8,8,0,0,1,384,168Z"></path><path class="cls-10" d="M112,384a8,8,0,0,1-5-14.25l40-32a8,8,0,1,1,10,12.5l-40,32A8,8,0,0,1,112,384Z"></path><path class="cls-10" d="M168,256a8,8,0,0,1-7.69-5.8l-12.89-45.12a27.24,27.24,0,0,1,6.92-26.74,8,8,0,0,1,11.32,11.32,11.23,11.23,0,0,0-2.86,11l12.89,45.12A8,8,0,0,1,168,256Z"></path><path d="M64,416a32,32,0,1,0,32,32A32,32,0,0,0,64,416Zm0,48a16,16,0,1,1,16-16A16,16,0,0,1,64,464Z"></path><path d="M505,149.65l-72-72a24,24,0,0,0-32.92-.92L389.66,66.34a8,8,0,0,0-9.78-1.2l-12.56,7.54,7.54-12.56a8,8,0,0,0-1.2-9.78l-48-48a8,8,0,0,0-11.32,0L200,116.69l-2.34-2.35a8,8,0,0,0-11.32,0l-32,32-19.19,19.19a40.24,40.24,0,0,0-10.52,38L147,293.14a23.91,23.91,0,0,1-9,25.14L24.81,401.67A61.25,61.25,0,0,0,0,450.78V451a61,61,0,0,0,110.34,35.86L192.92,373.2A24.07,24.07,0,0,1,217,363.76l84.69,16.77a40,40,0,0,0,36.05-10.95l19.92-19.92,32-32a8,8,0,0,0,0-11.32L387.31,304,416,275.31V336a32,32,0,0,0,64,0V294.64A24,24,0,0,0,512,272V166.63A23.89,23.89,0,0,0,505,149.65ZM326.42,358.26a24,24,0,0,1-21.63,6.57l-84.68-16.76A40.11,40.11,0,0,0,180,363.79L97.4,477.45A45,45,0,0,1,16,451v-.22a45.18,45.18,0,0,1,18.3-36.23l113.18-83.39a39.86,39.86,0,0,0,15.08-41.9l-22.4-89.62a24.08,24.08,0,0,1,6.31-22.79L160,163.31,340.69,344ZM352,332.69,171.31,152,192,131.31,372.69,312Zm24-40L211.31,128,320,19.31l37.93,37.93L337.14,91.88a8,8,0,0,0,11,11l34.64-20.79L388.69,88,359,117.65a23.89,23.89,0,0,0-7,17V240a24,24,0,0,0,48,0v-8a8,8,0,0,1,8-8,8,8,0,0,1,8,8v20.69ZM496,272a8,8,0,0,1-8,8,8,8,0,0,1-8-8,8,8,0,0,0-16,0v64a16,16,0,1,1-32,0V232a24,24,0,1,0-48,0v8a8,8,0,0,1-8,8,8,8,0,0,1-8-8V134.63a7.92,7.92,0,0,1,2.35-5.66l40-40a8,8,0,0,1,11.3,0l72,72a7.92,7.92,0,0,1,2.35,5.66Z"></path><path d="M448,384a32,32,0,1,0,32,32A32,32,0,0,0,448,384Zm0,48a16,16,0,1,1,16-16A16,16,0,0,1,448,432Z"></path></g></svg>