<svg id="Layer_1" data-name="Layer 1" xmlns="http://www.w3.org/2000/svg" viewBox="0 0 48 48">
  <defs>
    <style>
      .cls-1 {
        fill: #cfe0f3;
      }

      .cls-2 {
        fill: #0d3b8d;
      }

      .cls-3 {
        fill: #ff6500;
      }

      .cls-4 {
        fill: #ffc343;
      }

      .cls-5 {
        fill: #00286f;
      }

      .cls-6 {
        fill: #f6a28d;
      }

      .cls-7 {
        fill: #ffa221;
      }

      .cls-8 {
        fill: #eff3f9;
      }

      .cls-9 {
        fill: #ffcdb4;
      }

      .cls-10 {
        fill: #ff8200;
      }
    </style>
  </defs>
  <path class="cls-4" d="m4.316,44.948l7.791-2.577c.593-.196,1.131-.528,1.573-.97l30.151-30.161c1.56-1.56,1.56-4.09,0-5.65l-1.42-1.42c-1.56-1.56-4.09-1.56-5.65,0L6.599,34.321c-.441.441-.774.98-.97,1.573l-2.577,7.791c-.258.78.483,1.522,1.263,1.263Z"></path>
  <path class="cls-7" d="m4.316,44.948l7.791-2.577c.593-.196,1.131-.528,1.573-.97l30.151-30.161c1.56-1.56,1.56-4.09,0-5.65l-.71-.71L3.295,44.705c.251.251.631.371,1.021.242Z"></path>
  <path class="cls-10" d="m32.965,7.965l7.071,7.071,3.795-3.795c1.56-1.56,1.56-4.09,0-5.65l-1.42-1.42c-1.56-1.56-4.09-1.56-5.65,0l-3.795,3.795Z"></path>
  <path class="cls-3" d="m40.035,15.035l3.795-3.795c1.56-1.56,1.56-4.09,0-5.65l-.71-.71-6.62,6.62,3.535,3.535Z"></path>
  <rect class="cls-8" x="35" y="6.5" width="3" height="10" transform="translate(2.559 29.178) rotate(-45)"></rect>
  <rect class="cls-1" x="36.768" y="10.768" width="3" height="5" transform="translate(1.83 30.952) rotate(-45.01)"></rect>
  <path class="cls-9" d="m6.035,35.035c-.168.269-.305.556-.405.859l-2.577,7.791c-.258.78.483,1.522,1.263,1.263l7.791-2.577c.303-.1.59-.238.859-.405l-6.93-6.93Z"></path>
  <path class="cls-6" d="m4.316,44.948l7.791-2.577c.303-.1.59-.238.859-.405l-3.465-3.465-6.205,6.205c.251.251.631.371,1.021.242Z"></path>
  <path class="cls-2" d="m4.204,40.204l-1.151,3.481c-.258.78.483,1.522,1.263,1.263l3.481-1.151-3.593-3.593Z"></path>
  <path class="cls-5" d="m4.316,44.948l3.481-1.151-1.796-1.796-2.705,2.705c.251.251.631.371,1.021.242Z"></path>
</svg>